# xmcd
#
# Track frame offsets: 
#        150
#        22432
#        40202
#        57455
#        74695
#        95035
#        115277
#        135457
#        156877
#        169330
#        181157
#        202000
#
# Disc length: 3163 seconds
#
# Revision: 0
# Processed by: cddbd v1.5.2PL0 Copyright (c) Steve Scherf et al.
# Submitted via: ExactAudioCopyFreeDBPlugin 1.0
#
DISCID=b90c590c
DTITLE=คาราบาว - ถึก
DYEAR=1900
DGENRE=Country
TTITLE0=มนต์เพลงคาราบาว
TTITLE1=ถึกควายถุย ภาค 1
TTITLE2=ถึกควายถุย ภาค 2
TTITLE3=ถึกควายถุย ภาค 3
TTITLE4=ถึกควายถุย ภาค 4
TTITLE5=ถึกควายถุย ภาค 5
TTITLE6=ถึกควายถุย ภาค 6
TTITLE7=ถึกควายถุย ภาค 7
TTITLE8=ถึกควายถุย ภาค 8
TTITLE9=ถึกควายถุย ภาค 9
TTITLE10=ถึกควายถุย ภาค 10
TTITLE11=ชีวิตสัมพันธ์
EXTD=
EXTT0=
EXTT1=
EXTT2=
EXTT3=
EXTT4=
EXTT5=
EXTT6=
EXTT7=
EXTT8=
EXTT9=
EXTT10=
EXTT11=
PLAYORDER=
